<?xml version="1.0" encoding="utf-8"?>
<!-- Generator: Adobe Illustrator 16.0.3, SVG Export Plug-In . SVG Version: 6.00 Build 0)  -->
<!DOCTYPE svg PUBLIC "-//W3C//DTD SVG 1.1//EN" "http://www.w3.org/Graphics/SVG/1.1/DTD/svg11.dtd">
<svg version="1.1" id="Capa_1" xmlns="http://www.w3.org/2000/svg" xmlns:xlink="http://www.w3.org/1999/xlink" x="0px" y="0px"
	 width="900px" height="900px" viewBox="0 0 900 900" enable-background="new 0 0 900 900" xml:space="preserve">
<path fill-rule="evenodd" clip-rule="evenodd" fill="#00EAF8" stroke="#FFFFFF" stroke-miterlimit="10" d="M360.117,452.224
	c-0.01,18.372-4.64,35.622-13.362,51.838c-6.011,11.176-16.23,17.142-28.052,20.834c-19.869,6.207-39.838,12.094-59.958,17.489
	c-6.922,1.857-13.83,3.788-20.809,5.419c-16.963,3.95-26.839,14.554-30.747,30.846c-1.142,4.764-2.004,9.598-3.173,14.356
	c-0.245,0.991,0.766,2.75-1.064,2.957c-1.602,0.179-2.68-0.84-3.241-2.445c-2.853-8.19-7.329-15.639-11.379-23.268
	c-2.952-5.557-4.543-11.274-4.089-17.552c0.126-1.73,0.41-3.392,0.781-5.077c1.026-4.672,3.663-7.271,8.687-8.022
	c6.823-1.018,13.546-2.648,19.946-5.291c7.815-3.229,13.871-8.2,16.77-16.279c0.224-0.619,0.419-1.359,0.882-1.768
	c5.293-4.677,3.59-9.581,0.731-14.671c-4.54-8.082-6.717-16.861-6.188-25.986c0.729-12.59-4.586-22.328-13.7-30.484
	c-7.534-6.748-16.141-12.057-25.046-16.875c-3.463-1.874-6.01-4.338-7.792-7.789c-5.545-10.729-9.619-21.883-10.603-33.947
	c-0.283-3.474-1.975-4.63-5.371-3.883c-6.495,1.43-11.647,5.078-15.931,9.766c-7.165,7.844-12.224,16.804-13.662,27.431
	c-0.381,2.826-2.076,4.737-4.456,6.31c-9.339,6.175-17.951,13.218-25.85,21.088c-12.764,12.716-19.046,28.335-21.669,45.672
	c-1.029,6.805-2.594,13.514-5.53,19.855c-1.12,2.415-1.936,2.52-3.315,0.209c-7.6-12.748-13.866-26.062-18.26-40.199
	c-0.457-1.469-0.417-2.804,0.013-4.258c13.418-45.417,27.642-90.566,47.564-133.766c7.022-15.229,15.988-29.469,24.542-43.902
	c2.922-4.934,7.448-8.416,12.418-11.209c7.111-3.993,13.722-1.76,16.946,5.649c5.338,12.269,7.012,25.206,7.119,38.423
	c0.053,6.351,0.435,12.702,0.372,19.053c-0.034,3.448,1.528,4.536,4.8,4.849c12.263,1.172,24.497,2.636,36.76,3.83
	c13.438,1.309,23.382,7.677,29.952,19.168c6.274,10.98,12.762,21.86,18.213,33.26c2.352,4.92,5.587,6.91,11.332,6.986
	c24.386,0.33,48.771,1.026,72.482,7.69c16.152,4.543,22.774,12.904,22.939,29.32C360.13,449.308,360.117,450.768,360.117,452.224z"
	/>
<path fill-rule="evenodd" clip-rule="evenodd" fill="#00EAF8" d="M174.46,404.003c-0.535-1.307-1.068-2.614-1.603-3.921
	c-0.435,0.023-0.87,0.043-1.304,0.064c-0.328,6.464-0.657,12.927-0.984,19.393c-1.307-6.619-1.772-13.221-0.773-19.836
	c0.164-1.085,0.401-2.511,2.027-2.564c1.256-0.042,1.929,0.918,2.367,1.882c0.484,1.071,0.754,2.236,1.119,3.359
	C175.59,403.206,176.034,404.107,174.46,404.003z"/>
<path fill-rule="evenodd" clip-rule="evenodd" fill="#FFFFFF" d="M190.025,528.701c9.887-4.1,19.771-8.197,29.657-12.293
	c0.159,0.355,0.315,0.716,0.475,1.071c-9.915,4.128-19.827,8.252-29.742,12.382C190.285,529.474,190.155,529.087,190.025,528.701z"
	/>
<path fill-rule="evenodd" clip-rule="evenodd" fill="#FFFFFF" d="M190.965,493.211c9.974,4.146,19.949,8.301,29.924,12.45
	c-0.153,0.355-0.31,0.715-0.463,1.073c-9.975-4.141-19.949-8.271-29.923-12.404C190.657,493.955,190.811,493.582,190.965,493.211z"
	/>
<path fill-rule="evenodd" clip-rule="evenodd" fill="#FFFFFF" d="M217.596,511.823c-10.653,0.689-21.076-0.382-31.521-0.963
	C196.662,510.349,207.216,510.743,217.596,511.823z"/>
<path fill-rule="evenodd" clip-rule="evenodd" fill="#00EAF8" d="M174.46,404.003c0.282-0.542,0.565-1.08,0.848-1.623
	c1.086,2.308,1.289,4.765,0.832,7.4C175.58,407.853,175.019,405.928,174.46,404.003z"/>
<path fill-rule="evenodd" clip-rule="evenodd" fill="#FFFFFF" d="M363.083,449.78c-0.208,0.975,0.598,2.481-0.802,3.074
	c-1.078,0.458-1.923-0.692-2.805-1.244c-10.067-6.301-17.303-14.625-19.657-26.403c-0.194-0.969-1.168-2.164-0.093-2.895
	c0.559-0.378,1.802,0.053,2.684,0.303C355.455,426.292,362.778,435.885,363.083,449.78z"/>
<path fill-rule="evenodd" clip-rule="evenodd" fill="#FFFFFF" d="M246.452,465.204c17.418-3.052,34.838-6.112,52.256-9.165
	c0.071,0.393,0.143,0.789,0.214,1.185c-17.418,3.057-34.837,6.109-52.255,9.157C246.596,465.991,246.526,465.598,246.452,465.204z"
	/>
<path fill-rule="evenodd" clip-rule="evenodd" fill="#FFFFFF" d="M259.654,478.124c14.222-4.624,28.442-9.255,42.664-13.88
	c0.132,0.38,0.262,0.764,0.393,1.146c-14.211,4.63-28.419,9.258-42.628,13.887C259.94,478.893,259.797,478.508,259.654,478.124z"/>
<path fill-rule="evenodd" clip-rule="evenodd" fill="#FFFFFF" d="M255.235,447.988c14.524,0,29.048,0,43.571,0
	c0.005,0.192,0.007,0.382,0.013,0.573c-14.515,0-29.026,0-43.539,0C255.265,448.37,255.251,448.18,255.235,447.988z"/>
<path fill="#00EAF8" stroke="#FFFFFF" stroke-miterlimit="10" d="M420.241,424.543c8.036,0.121,15.299,2.109,21.788,5.967
	c6.488,3.857,11.662,9.041,15.52,15.55s5.826,13.762,5.907,21.758c-0.041,8.116-2,15.45-5.877,21.999
	c-3.878,6.55-9.101,11.782-15.67,15.7c-6.57,3.918-13.854,5.877-21.849,5.877c-6.188,0-11.974-1.195-17.358-3.587
	c-5.385-2.39-10.065-5.675-14.043-9.854v48.096v4.642h-12.054v-4.642v-78.473v-42.913h12.054v13.32
	c4.018-4.219,8.729-7.513,14.134-9.884C408.196,425.729,414.013,424.543,420.241,424.543z M420.302,498.557
	c5.745,0,10.999-1.417,15.761-4.249c4.762-2.833,8.548-6.62,11.361-11.361c2.812-4.741,4.219-10.005,4.219-15.791
	c0-5.746-1.407-11-4.219-15.761c-2.813-4.762-6.6-8.559-11.361-11.392s-10.016-4.249-15.761-4.249
	c-5.786,0-11.051,1.417-15.791,4.249c-4.742,2.833-8.528,6.63-11.361,11.392c-2.833,4.761-4.249,10.015-4.249,15.761
	c0,5.786,1.417,11.05,4.249,15.791c2.833,4.741,6.62,8.528,11.361,11.361C409.251,497.14,414.516,498.557,420.302,498.557z"/>
<path fill="#00EAF8" stroke="#FFFFFF" stroke-miterlimit="10" d="M498.172,448.833c5.705,0,10.918,1.397,15.641,4.189
	c4.721,2.793,8.457,6.52,11.21,11.181c2.752,4.661,4.168,9.884,4.249,15.67v5.786h-0.964v0.061h-30.618v-12.055h18.503
	c-1.366-3.776-3.667-6.85-6.9-9.221c-3.235-2.371-6.941-3.557-11.12-3.557c-5.224,0-9.704,1.859-13.44,5.575
	c-3.737,3.717-5.605,8.207-5.605,13.471c0,3.656,0.974,6.911,2.923,9.764c1.949,2.854,4.38,5.093,7.293,6.721
	c2.913,1.627,5.916,2.481,9.011,2.562l-0.302,12.054c-7.795-0.28-14.787-3.174-20.974-8.679
	c-6.671-6.389-10.005-13.862-10.005-22.421c0-5.705,1.405-10.919,4.219-15.641c2.812-4.721,6.569-8.478,11.271-11.271
	C487.263,450.229,492.466,448.833,498.172,448.833z"/>
<path fill="#00EAF8" stroke="#FFFFFF" stroke-miterlimit="10" d="M544.942,461.248v18.685h-12.054v-55.45h12.054v24.711h11.633
	v12.054H544.942z M544.942,479.933c0,5.265,1.858,9.755,5.575,13.471c3.716,3.717,8.206,5.575,13.471,5.575v12.054
	c-5.747,0-10.97-1.396-15.671-4.188c-4.701-2.792-8.448-6.549-11.24-11.271c-2.793-4.722-4.188-9.935-4.188-15.641H544.942z"/>
<path fill="#00EAF8" stroke="#FFFFFF" stroke-miterlimit="10" d="M629.804,449.134v0.061v30.799v24.53h-0.061
	c-0.08,5.786-1.497,11.02-4.249,15.7s-6.489,8.417-11.21,11.211c-4.722,2.792-9.936,4.188-15.641,4.188v-12.054
	c5.264,0,9.754-1.859,13.471-5.575c3.716-3.718,5.575-8.207,5.575-13.471h0.061c-2.652,2.049-5.596,3.646-8.83,4.791
	c-3.235,1.146-6.641,1.718-10.216,1.718c-5.747,0-10.97-1.396-15.671-4.188c-4.701-2.792-8.448-6.549-11.24-11.271
	c-2.793-4.722-4.188-9.935-4.188-15.641v-30.799h12.054v30.799c0,5.265,1.858,9.755,5.575,13.471
	c3.716,3.717,8.206,5.575,13.471,5.575c5.223,0,9.703-1.858,13.44-5.575c3.736-3.716,5.605-8.206,5.605-13.471v-30.799H629.804z"/>
<path fill="#00EAF8" stroke="#FFFFFF" stroke-miterlimit="10" d="M649.271,487.104c2.21,4.903,5.655,8.328,10.337,10.276
	c4.681,1.949,9.532,1.959,14.556,0.03l4.58,11.15c-3.938,1.567-7.876,2.351-11.813,2.351c-6.108,0-11.783-1.697-17.027-5.093
	c-5.243-3.396-9.171-8.106-11.782-14.134c-3.135-7.956-3.115-15.891,0.06-23.808c3.375-7.835,8.98-13.44,16.815-16.815
	c3.737-1.446,7.253-2.189,10.548-2.23c3.294-0.04,6.077,0.211,8.348,0.753c2.27,0.542,3.746,0.975,4.43,1.296l-4.399,11.211
	c-0.161-0.08-0.925-0.302-2.29-0.663c-1.367-0.362-3.115-0.552-5.244-0.573c-2.13-0.02-4.38,0.433-6.75,1.356
	c-4.822,2.049-8.258,5.484-10.307,10.307C647.363,477.382,647.343,482.243,649.271,487.104z"/>
<path fill="#00EAF8" stroke="#FFFFFF" stroke-miterlimit="10" d="M713.461,448.833c5.665,0,10.849,1.386,15.55,4.159
	s8.438,6.479,11.211,11.12c2.772,4.641,4.219,9.835,4.339,15.58v31.462h-12.054v-6.63c-2.652,2.049-5.596,3.646-8.83,4.791
	c-3.235,1.146-6.641,1.718-10.216,1.718c-5.706,0-10.92-1.396-15.641-4.188c-4.722-2.792-8.479-6.539-11.271-11.24
	c-2.793-4.701-4.188-9.925-4.188-15.671c0-5.705,1.396-10.909,4.188-15.61c2.792-4.701,6.549-8.458,11.271-11.271
	C702.541,450.24,707.755,448.833,713.461,448.833z M713.461,498.979c5.264,0,9.754-1.858,13.471-5.575
	c3.716-3.716,5.575-8.206,5.575-13.471c0-5.223-1.859-9.704-5.575-13.44c-3.717-3.737-8.207-5.605-13.471-5.605
	c-5.265,0-9.755,1.868-13.471,5.605c-3.717,3.736-5.575,8.218-5.575,13.44c0,5.265,1.858,9.755,5.575,13.471
	C703.706,497.12,708.196,498.979,713.461,498.979z"/>
<path fill="#00EAF8" stroke="#FFFFFF" stroke-miterlimit="10" d="M748.177,480.234c0-5.705,1.405-10.909,4.219-15.61
	c2.812-4.701,6.569-8.458,11.271-11.271c4.701-2.812,9.904-4.219,15.61-4.219v12.055c-5.224,0-9.704,1.868-13.44,5.605
	c-3.737,3.736-5.605,8.217-5.605,13.44v30.798h-12.054V480.234z"/>
<path fill="#00EAF8" stroke="#FFFFFF" stroke-miterlimit="10" d="M833.039,455.402v-30.919h12.054v55.691
	c-0.12,5.746-1.566,10.939-4.339,15.58c-2.773,4.641-6.5,8.348-11.181,11.12c-4.682,2.772-9.875,4.158-15.58,4.158
	c-5.706,0-10.92-1.396-15.641-4.188c-4.722-2.792-8.479-6.549-11.271-11.271c-2.793-4.722-4.188-9.935-4.188-15.641
	c0-5.705,1.396-10.919,4.188-15.641c2.792-4.721,6.549-8.478,11.271-11.271c4.721-2.792,9.935-4.189,15.641-4.189
	c3.575,0,6.98,0.573,10.216,1.718C827.443,451.695,830.387,453.313,833.039,455.402z M813.993,498.979
	c5.264,0,9.754-1.858,13.471-5.575c3.716-3.716,5.575-8.206,5.575-13.471c0-5.264-1.859-9.754-5.575-13.471
	c-3.717-3.716-8.207-5.575-13.471-5.575c-5.265,0-9.755,1.859-13.471,5.575c-3.717,3.717-5.575,8.207-5.575,13.471
	c0,5.265,1.858,9.755,5.575,13.471C804.238,497.12,808.729,498.979,813.993,498.979z"/>
</svg>
